HIERARCHY
ROOT Hips
{
	OFFSET -0.001795 -0.223333 0.028219
	CHANNELS 6 Xposition Yposition Zposition Zrotation Yrotation Xrotation 
	JOINT LeftUpLeg
	{
		OFFSET 0.069520 -0.091406 -0.006815
		CHANNELS 3 Zrotation Yrotation Xrotation
		JOINT LeftLeg
		{
			OFFSET 0.034277 -0.375199 -0.004496
			CHANNELS 3 Zrotation Yrotation Xrotation
			JOINT LeftFoot
			{
				OFFSET -0.013596 -0.397961 -0.043693
				CHANNELS 3 Zrotation Yrotation Xrotation
				JOINT LeftToe
				{
					OFFSET 0.026358 -0.055791 0.119288
					CHANNELS 3 Zrotation Yrotation Xrotation
					End Site
					{
						OFFSET 0.000000 0.000000 0.000000
					}
				}
			}
		}
	}
	JOINT RightUpLeg
	{
		OFFSET -0.067670 -0.090522 -0.004320
		CHANNELS 3 Zrotation Yrotation Xrotation
		JOINT RightLeg
		{
			OFFSET -0.038290 -0.382569 -0.008850
			CHANNELS 3 Zrotation Yrotation Xrotation
			JOINT RightFoot
			{
				OFFSET 0.015774 -0.398415 -0.042312
				CHANNELS 3 Zrotation Yrotation Xrotation
				JOINT RightToe
				{
					OFFSET -0.025372 -0.048144 0.123348
					CHANNELS 3 Zrotation Yrotation Xrotation
					End Site
					{
						OFFSET 0.000000 0.000000 0.000000
					}
				}
			}
		}
	}
	JOINT Spine
	{
		OFFSET -0.002533 0.108963 -0.026696
		CHANNELS 3 Zrotation Yrotation Xrotation
		JOINT Spine1
		{
			OFFSET 0.005487 0.135180 0.001092
			CHANNELS 3 Zrotation Yrotation Xrotation
			JOINT Spine2
			{
				OFFSET 0.001457 0.052922 0.025425
				CHANNELS 3 Zrotation Yrotation Xrotation
				JOINT Neck
				{
					OFFSET -0.002778 0.213870 -0.042857
					CHANNELS 3 Zrotation Yrotation Xrotation
					JOINT Head
					{
						OFFSET 0.005152 0.064970 0.051349
						CHANNELS 3 Zrotation Yrotation Xrotation
						End Site
						{
							OFFSET 0.000000 0.000000 0.000000
						}
					}
				}
				JOINT LeftShoulder
				{
					OFFSET 0.078845 0.121749 -0.034090
					CHANNELS 3 Zrotation Yrotation Xrotation
					JOINT LeftArm
					{
						OFFSET 0.090977 0.030469 -0.008868
						CHANNELS 3 Zrotation Yrotation Xrotation
						JOINT LeftForeArm
						{
							OFFSET 0.259612 -0.012772 -0.027456
							CHANNELS 3 Zrotation Yrotation Xrotation
							JOINT LeftHand
							{
								OFFSET 0.249234 0.008986 -0.001171
								CHANNELS 3 Zrotation Yrotation Xrotation
								End Site
								{
									OFFSET 0.000000 0.000000 0.000000
								}
							}
						}
					}
				}
				JOINT RightShoulder
				{
					OFFSET -0.081759 0.118833 -0.038615
					CHANNELS 3 Zrotation Yrotation Xrotation
					JOINT RightArm
					{
						OFFSET -0.096012 0.032551 -0.009143
						CHANNELS 3 Zrotation Yrotation Xrotation
						JOINT RightForeArm
						{
							OFFSET -0.253742 -0.013329 -0.021401
							CHANNELS 3 Zrotation Yrotation Xrotation
							JOINT RightHand
							{
								OFFSET -0.255298 0.007772 -0.005559
								CHANNELS 3 Zrotation Yrotation Xrotation
								End Site
								{
									OFFSET 0.000000 0.000000 0.000000
								}
							}
						}
					}
				}
			}
		}
	}
}
MOTION
Frames: 9
Frame Time: 0.050000
0.000000 0.929005 0.000000 -1.789941 -1.067552 5.974122 7.149094 -0.276942 -3.561456 3.548626 -0.368117 -0.279729 0.136515 2.294939 4.902903 0.000000 0.000000 0.000000 -3.731495 0.598948 -6.619070 -2.732369 0.450756 2.678619 2.215682 -1.101035 12.637081 0.000000 0.000000 0.000000 0.481005 0.170770 -3.988036 -0.790763 0.421162 -3.014989 -0.844962 0.645459 5.676597 0.711824 0.202665 -9.187175 0.000000 0.000000 0.000000 -14.484567 -5.692205 1.400401 -56.056312 -9.100662 -2.501364 -14.777951 -19.762837 3.308656 0.000000 0.000000 0.000000 11.814740 5.423604 1.512892 63.311539 7.889971 -1.958120 13.347705 22.061994 3.116705 0.000000 0.000000 0.000000 
0.000046 0.928908 0.001134 -1.819050 -2.188434 6.875182 6.483032 -0.260474 -2.950626 4.544352 -0.317454 -2.470789 0.553903 3.265308 5.612046 0.000000 0.000000 0.000000 -3.917333 0.639110 -7.008806 -2.588964 0.342636 1.342326 2.778986 -0.298521 12.881371 0.000000 0.000000 0.000000 0.510452 0.209583 -4.742891 -1.413103 0.683300 -2.741864 -0.231747 1.078736 4.731476 -1.111304 1.460795 -9.709245 0.000000 0.000000 0.000000 -14.732481 -4.809016 0.990567 -55.857496 -8.587921 -2.633205 -15.209059 -18.459442 3.154927 0.000000 0.000000 0.000000 10.706340 5.072631 1.321717 64.307128 7.048381 -2.348098 14.174169 21.815758 3.195424 0.000000 0.000000 0.000000 
0.000078 0.929247 0.002212 -1.339173 -1.403757 6.980838 5.962893 -0.293549 -3.484621 4.690069 -0.359212 -2.009622 0.181204 2.637416 5.674430 0.000000 0.000000 0.000000 -4.185789 0.657362 -7.451924 -2.913896 0.447936 2.330611 2.311698 -0.991517 12.699645 0.000000 0.000000 0.000000 0.241215 0.199077 -4.641272 -1.111557 0.567732 -3.853799 -1.007012 0.548790 5.089289 -0.750871 1.184187 -9.080367 0.000000 0.000000 0.000000 -14.440764 -4.438889 0.823655 -55.992350 -8.844527 -2.558143 -14.973744 -16.153909 2.711177 0.000000 0.000000 0.000000 12.398153 5.635408 1.534811 62.906828 6.505946 -2.643029 12.766851 21.195294 2.856583 0.000000 0.000000 0.000000 
-0.000124 0.929504 0.003432 -1.337161 -1.660242 7.581376 5.836417 -0.313540 -3.822915 4.873489 -0.352280 -2.320805 0.283156 2.905496 5.948474 0.000000 0.000000 0.000000 -4.194167 0.722601 -8.323623 -2.941774 0.478876 2.766745 2.400375 -0.896951 12.790165 0.000000 0.000000 0.000000 0.023904 0.223782 -5.215855 -1.861625 0.886106 -3.753358 -0.133619 -0.163600 4.160390 -2.396425 2.171461 -7.241504 0.000000 0.000000 0.000000 -13.573569 -3.763564 0.709790 -56.821719 -8.491848 -2.643332 -15.032415 -14.639850 2.474446 0.000000 0.000000 0.000000 11.517664 5.933084 1.509164 63.076127 5.782338 -2.983233 13.204862 20.230716 2.726597 0.000000 0.000000 0.000000 
-0.000430 0.929969 0.004522 -1.243229 -0.820491 7.434631 5.413887 -0.321927 -3.785730 5.661476 -0.411585 -2.360758 -0.125625 2.258171 6.098081 0.000000 0.000000 0.000000 -4.262556 0.678493 -7.814876 -2.796695 0.450285 2.565789 2.054343 -1.491999 12.946919 0.000000 0.000000 0.000000 -0.097519 0.223112 -5.339717 -1.571698 0.770587 -3.871136 -0.524870 -0.850232 4.279891 -2.304195 2.104015 -7.391028 0.000000 0.000000 0.000000 -13.466762 -3.678307 0.702081 -56.625860 -8.542393 -2.624007 -14.791745 -13.201927 2.194836 0.000000 0.000000 0.000000 11.393798 5.423190 1.259423 63.083896 5.871652 -2.960629 12.551420 19.265952 2.476229 0.000000 0.000000 0.000000 
-0.000616 0.930433 0.005203 -1.324409 -0.471213 7.488497 5.612429 -0.319611 -3.643621 5.565405 -0.364482 -2.794483 -0.334501 1.977383 6.318749 0.000000 0.000000 0.000000 -4.137208 0.673647 -7.730105 -2.764397 0.443255 2.503651 1.939831 -1.744823 13.170845 0.000000 0.000000 0.000000 -0.144202 0.222574 -5.388080 -1.517033 0.753968 -4.188786 -0.264308 -1.285938 4.191990 -2.673573 2.320742 -6.496779 0.000000 0.000000 0.000000 -13.458651 -3.268058 0.558198 -57.078482 -8.395771 -2.694981 -14.058748 -12.617196 2.017391 0.000000 0.000000 0.000000 10.976364 5.570386 1.297795 62.908063 5.652958 -3.077318 12.597943 18.802449 2.402394 0.000000 0.000000 0.000000 
-0.000637 0.931123 0.005415 -1.417749 0.249023 7.421647 5.620038 -0.323941 -3.586077 5.894766 -0.362500 -3.072092 -0.714528 1.423017 6.557587 0.000000 0.000000 0.000000 -4.121142 0.648910 -7.450850 -2.450105 0.399413 2.394756 1.688603 -2.241013 13.527615 0.000000 0.000000 0.000000 -0.123199 0.218766 -5.380939 -1.266788 0.657049 -4.330295 -0.393055 -1.756382 4.383321 -2.209930 2.007017 -7.102449 0.000000 0.000000 0.000000 -13.217892 -2.763270 0.338767 -57.328331 -8.190336 -2.817234 -13.992447 -12.885434 2.056542 0.000000 0.000000 0.000000 10.811459 5.260188 1.164462 62.526092 5.679545 -3.070756 12.255482 18.607229 2.325010 0.000000 0.000000 0.000000 
-0.000418 0.931536 0.005377 -1.586789 0.518013 7.303942 5.792785 -0.326305 -3.616297 5.947431 -0.378566 -2.915190 -0.832438 1.228002 6.561474 0.000000 0.000000 0.000000 -4.107357 0.627361 -7.160651 -2.105110 0.344457 2.173542 1.646921 -2.381945 13.812541 0.000000 0.000000 0.000000 0.118092 0.216172 -5.272966 -1.147836 0.611135 -4.416857 -0.325232 -1.809895 4.194005 -2.185569 1.982917 -6.806147 0.000000 0.000000 0.000000 -13.005135 -2.659525 0.281271 -57.726173 -7.672961 -3.064680 -14.128195 -13.596547 2.189972 0.000000 0.000000 0.000000 10.436814 5.189700 1.163424 62.424943 5.598292 -3.089966 12.072436 18.348822 2.262381 0.000000 0.000000 0.000000 
-0.000172 0.931621 0.005327 -1.530979 1.193807 7.135099 5.703003 -0.327659 -3.520135 6.115786 -0.372974 -3.077216 -1.162758 0.680105 6.580786 0.000000 0.000000 0.000000 -4.288304 0.597515 -6.878825 -1.775688 0.308253 2.225981 1.351049 -2.848061 13.882467 0.000000 0.000000 0.000000 0.144121 0.212731 -5.265391 -1.063193 0.578466 -4.179568 -0.343638 -2.257934 4.095036 -2.227081 2.001040 -6.589231 0.000000 0.000000 0.000000 -12.639553 -2.643243 0.302183 -58.341988 -7.729272 -3.050872 -13.760373 -14.158496 2.240066 0.000000 0.000000 0.000000 10.232509 5.187522 1.162845 62.128108 5.584020 -3.084828 12.185858 18.424686 2.286628 0.000000 0.000000 0.000000 
